<svg
  xmlns="http://www.w3.org/2000/svg"
  width="99.337"
  height="65.576"
  version="1.1"
  viewBox="0 0 26.283 17.35"
>
   <g transform="translate(-67.969 -111.94)" stroke="#000" strokeWidth="0">
      <g ariaLabel="Julieta">
         <path
        d="M68.453 120.934v-.006l.013.026v-.006l-.013-.013zm.026.032zm-.051-.127l.006.032-.006-.026zm7.702-8.579q.09.057.146.153.064.089.051.178-.006.088-.089.101-.082.006-.14-.038-.025-.019-.07-.044-.037-.026-.05-.032.032.019 0 .006-.02-.013-.025-.013-.032-.019-.064-.032-.07-.025-.14-.044-.006 0-.025-.006l-.006-.006h-.007.007q-.07-.013-.077-.013-.298-.063-.685-.057-.578.013-1.391.19-.248.058-.52.134.006.032.006.063-.007.013-.007.045-.057.394-.152.908-.165.902-.362 1.759-.28 1.175-.59 2.14-.382 1.175-.813 2-.508.972-1.074 1.435-.304.248-.666.356-.362.114-.711.019-.21-.05-.362-.197-.153-.14-.229-.337-.07-.19-.102-.393-.025-.203-.006-.413.063-.883.641-2.026.616-1.212 1.493-2.07.984-.965 2.032-1.13.019-.006.038-.006l.05-.222q.166-.769.293-1.53.025-.14.044-.261-.229.07-.444.146-.655.222-1.213.476-.108.051-.223.102l-.019.013-.019.006-.05.025q-.045.02-.083.044-.184.096-.273.16-.05.037-.127.018-.07-.025-.127-.082-.057-.057-.102-.127-.044-.07-.044-.134 0-.07.05-.108.23-.165.87-.444 1.436-.622 2.788-.889.813-.165 1.429-.14.718.02 1.15.318zm-4.4 4.395q.171-.591.324-1.207l-.16.05q-.939.344-1.834 1.391-.775.896-1.258 2.045-.114.267-.196.527l-.077.242-.019.07v.005q-.006.013-.006.02l-.025.114q-.051.235-.07.438-.013.101-.013.197v.095q0-.044.007-.006v.05q.006.07.025.153h-.006q.006 0 .006.006v.006q0 .013.006.02l.02.056q0-.006-.007-.006.006 0 .006.013 0 0 0 0l.007.006q0 .006.006.013v0l.006.006q.007.012.02.019l-.013-.013q.012.006.019.019.012.006.019.006h.012q.013.006.013.013h.032q.025.006.038.006.082.012.171.012h.051l.076-.006q.165-.019.324-.076l.076-.038q.007 0 .026-.006l.006-.006q.013-.006.02-.006.075-.038.151-.089.286-.19.566-.514l.07-.083q.006-.012.025-.038l.013-.012.133-.185q.12-.177.241-.387.229-.394.445-.889.387-.87.724-2.032zm3.988-4.172l.006.006-.006-.006z"
      />
         <path
        d="M77.02 117.556q.063-.082.114.026.038.088.006.19-.013.05-.089.203-.076.146-.26.407-.178.254-.4.476-.216.222-.553.375-.33.158-.68.146-.221-.013-.406-.153-.177-.133-.279-.324-.102-.196-.127-.419l-.006-.006v-.012q-.254.419-.534.666-.26.235-.501.26-.197.013-.362-.082-.166-.089-.267-.26-.07-.114-.095-.254-.032-.146-.026-.267 0-.127.038-.292.032-.171.057-.267.026-.101.083-.266.07-.223.222-.616.159-.394.197-.502.013-.038.038-.05.032-.013.064-.007.031.006.063.02.038.012.064.031l.044.032q.19.171.134.336l-.21.521q-.171.438-.241.68-.045.165-.077.298-.038.171-.044.305V118.865q0 .02.006.05h.07q.02-.005.026-.005l.057-.013q.025-.006.05-.019.007 0 .026-.013h.006q.21-.114.432-.38.33-.4.699-1.163.177-.38.285-.68.026-.05.083-.05.057 0 .108.025.05.026.089.058.19.171.127.336-.032.076-.07.203l-.064.216-.012.057q-.007.013-.013.032v.006q-.02.083-.032.14-.07.292-.089.54-.019.146-.019.28V118.56l.007.013.012.12q0 .007.013.064v.006q.006.006.019.032.013.025.013.038v.013l.006.006v.006l.013.012h.012q.007.006.02.013.018 0 .025.006h.019q.14.026.298-.006.616-.101 1.283-.736.21-.197.4-.426l.064-.082.012-.013-.006.006.006-.006q.013-.013.013-.02.032-.037.038-.05zm-4.071 1.353zm0 0q.006 0 .025.006 0-.006-.025-.006zm-.006 0v-.006.006zm.006 0h-.006zm1.873-.051v.006zm.02.019zm-.02-.02v-.005q0-.006-.006-.02.006.014.006.026zm2.147-1.231z"
      />
         <path
        d="M79.839 117.569q.07-.083.127.044.038.083.019.165-.083.318-.635.877-.553.558-1.06.762-.674.266-1.03.044-.342-.21-.406-.68-.044-.33.038-.825.083-.45.267-1.035.311-.997.826-2.12.215-.47.406-.826.184-.343.317-.508.032-.051.096-.026.07.026.12.064.051.038.083.076.152.184.05.318l.013-.02-.019.026q-.012.019-.025.044-.28.42-.724 1.404-.495 1.11-.781 2.057-.038.127-.07.248-.032.108-.05.216-.064.24-.096.45-.032.223-.038.407v.127q.006.095.02.152 0 .006.005.025.007.013.013.038h.013q.45.045 1.054-.298.794-.445 1.467-1.207zm-2.572 1.283zm0 0v0zm.044.24v-.005.006z"
      />
         <path
        d="M82.277 117.543q.07-.063.09.077.012.114-.026.216-.026.063-.146.215-.121.153-.337.362-.21.21-.457.4-.241.185-.546.312-.305.133-.584.133-.33 0-.56-.356-.139-.222-.126-.558.025-.439.336-1.156.146-.343.299-.616.076-.14.26.019.178.152.159.298-.006.026-.02.051-.164.299-.323.673-.12.292-.197.54-.006.032-.019.083l-.006.012q0 .013-.007.02-.012.075-.025.126-.025.14-.025.248-.007.013 0 .057v.038l.006.038q.019.006.025.006.108.013.26-.012.54-.102 1.302-.667.388-.292.667-.559zm-2.254 1.264l.006.006-.006-.006zm.565-2.597q-.07-.064-.114-.159-.045-.101-.013-.178.045-.108.14-.323.025-.051.082-.051.057-.006.102.025.05.026.095.057.07.064.114.16.045.094.013.177-.05.108-.14.317-.025.058-.082.058t-.108-.026q-.044-.025-.089-.057z"
      />
         <path
        d="M82.436 118.769zm2.388-1.181q.076-.083.12-.006.038.076-.006.248-.026.101-.146.285-.12.178-.33.4-.21.223-.464.413-.248.184-.578.299-.324.114-.647.088-.28-.025-.496-.24-.216-.217-.286-.509-.101-.419.23-1.022.304-.578.634-.826.203-.152.375-.14.076.007.146.051.076.039.133.102.057.057.095.127.172.298.026.737-.146.419-.47.647-.184.127-.387.16-.134.018-.299-.052-.019-.006-.038-.019-.057.203-.032.356.007.032.013.044.006.013.006.02v0q0 .005.013.018l-.013-.012.013.012v0l.019.02q.006.005.032.018.006.006.012.006.051.02.058.02.006.005.057.012.031.006.07.006.184 0 .438-.07.393-.12.832-.425.508-.356.87-.769zm-1.417-.533h.007-.007q0 0 0 0zm-.146-.147v0zm-.387.591q-.146.203-.254.4l.076-.025q.064-.026.146-.09.077-.056.14-.126.057-.064.102-.14.05-.076.089-.165.038-.076.063-.171l.006-.006v-.006q.007-.026.007-.032l.006-.02q-.057.033-.108.083-.14.12-.273.299zm-.45 1.251h-.007v-.006q0 .006.006.013zm.056.057z"
      />
         <path
        d="M85.141 119.696q0-.006-.006-.006zm3.29-4.756q.012.082-.045.133-.05.045-.127.006-.095-.038-.21-.076-.006 0-.019-.006h-.019q-.032-.013-.05-.013l-.115-.025q-.241-.038-.533-.038-.597-.006-1.321.12-.622 1.544-.857 2.718-.09.439-.121.807-.013.197-.013.368v.146q.007.083.02.159.006.082.025.165l.012.07v.013l.007.012q.038.108.044.14.007.006.007.013.006.012.012.019.007.012.007.019v.006q.006.006.006.013v-.013q0 .006.006.013.006.012.038.063v.006q.007.006.038.05h.007q.006.014.05.052.07.05.115.07.082.044.14.146.063.101.057.184-.013.089-.096.095-.076.006-.14-.032-.336-.178-.533-.54-.19-.355-.235-.78-.063-.667.134-1.607.165-.788.495-1.74.082-.241.184-.508-.108.025-.203.05-1.035.255-1.588.515-.076.038-.165-.038-.095-.076-.14-.159-.114-.203.032-.273.28-.133.769-.286.774-.247 1.517-.387.21-.502.464-1.073.063-.14.235.006.178.14.178.298 0 .032-.013.057l-.273.623q.387-.045.673-.057.286-.02.648.025.368.038.647.165.096.038.165.127.07.083.083.178z"
      />
         <path
        d="M88.278 118.788v.006zm0 0h-.013v-.013l.007-.012q0 .006.006.025zm0 .006l-.006-.006.006.006zm2.178-1.181q.095-.146.127-.019.025.12-.025.273-.032.076-.108.203-.07.127-.19.292-.115.16-.28.324-.159.159-.343.299-.178.14-.4.222-.216.089-.432.089-.445 0-.66-.184-.248-.204-.318-.553-.019-.089-.025-.197-.318.445-.635.673-.28.204-.534.185-.254-.013-.438-.248-.19-.235-.21-.508-.038-.42.324-.984.28-.445.623-.724.349-.286.616-.248.33.05.552.35l.045-.077q.082-.101.184-.063.101.031.184.152.082.12.07.216-.007.044-.083.267-.089.26-.14.431-.019.058-.038.127-.006.02-.006.032-.006.038-.013.064-.031.14-.05.26-.02.133-.026.254V118.597q.006.012.006.038v.038l.013.038.006.025v.013q.007.019.007.025h.006v.012h.006-.006.006v.006q.007 0 0 .006h.007v-.006q.019.006.031.013H88.322q.07.013.12.02.16.005.369-.039.641-.127 1.213-.673.178-.165.343-.368v-.006q0 0 0 0l.012-.013q.013-.013.013-.019l.038-.05q.02-.026.026-.045zm-2.134.311zm.235-.794l-.006.013h-.006v.013q0 0 0 0 .019-.013.012-.026zm-.73-.108v0zm0 .006q0 .006.006.013v-.006l-.006-.006zm.006.006v-.006-.006.012zm0-.006l-.006-.012zm-.006-.006q0 0 0 0zm-1.403 1.721zm-.02-.006q0 0 0 0h.007zm.032.032zm.915-.718q.247-.33.527-.806-.045-.083-.045-.165.007-.026 0-.038-.006 0-.006-.006v-.013l-.05-.025q-.039-.013-.077-.02h-.032q-.05.007-.108.032-.044.013-.108.058-.063.038-.127.088-.304.235-.552.591-.159.229-.26.438-.096.203-.108.407 0 .044.006.088.006.032.006.051l.007.013q.006 0 .025.006h.038q.013-.006.026-.006.019-.006.031-.006.045-.013.108-.038.007 0 .026-.006l.006-.006q.025-.013.045-.026.101-.063.215-.158.204-.178.407-.451zm.914.743q0 .006.013.013v0-.006h-.006.006q-.006 0-.006-.006h-.007zm.013.006v.006z"
      />
      </g>
      <g ariaLabel="Morales">
         <path
        d="M76.661 120.202q.248.19.21.54-.026.19-.14.552-.089.286-.26.737-.14.368-.407 1.041-.26.673-.343.87-.489 1.27-.75 2.095-.082.26-.145.496-.057.222-.102.438-.108.476-.127.832-.006.095 0 .178v.088q0 .025.007.038.006.076.019.153v.019q.006.012.006.019.006.012.006.025l.007.019q.006.02.025.064v.006l.025.038.007.006q.012.012.025.019 0 .006.013.012.006 0 .012.006.21.102.235.299.013.089-.044.133-.05.045-.127.013-.35-.165-.52-.546-.096-.21-.121-.483-.02-.273 0-.489.025-.21.076-.489.146-.794.559-1.981.26-.743.793-2.083.451-1.143.572-1.48l-.4.604q-.254.387-.343.52-.768 1.15-1.29 1.906-.742 1.085-1.231 1.727-.305.394-.508.622-.222.248-.343.324-.229.146-.495-.083-.235-.196-.33-.622-.064-.286-.077-.78-.006-.407.032-.972.05-.775.222-2.198.02-.14.045-.361.032-.23.05-.426.026-.197.045-.362l-.038.127q-.114.4-.33 1.169-.21.768-.235.87-.4 1.428-.718 2.38-.444 1.322-.857 2.134-.241.47-.476.781-.273.362-.521.521-.07.045-.152 0-.083-.038-.146-.114-.02-.026-.045-.07-.019-.038-.038-.089-.019-.045-.013-.089.007-.044.045-.07.127-.076.247-.197l.121-.133.057-.07.013-.019q.006-.006.006-.013.007 0 .013-.012l.006-.006q.451-.597.921-1.785.375-.94.794-2.336.197-.655.648-2.293.336-1.225.482-1.625.108-.299.203-.407.057-.07.134-.07.076 0 .14.051.07.051.12.12.057.064.083.128.057.146.044.489-.013.26-.063.73-.039.375-.127 1.067l-.121 1.003q-.153 1.359-.165 2.134v.222q0 .057.006.12v.077q.013.21.032.362.013.089.032.159 0 .012.006.044.013.038.013.044.006.02.019.051.006-.006.012-.006.007-.006.013-.006.12-.076.343-.33.102-.12.229-.273l.127-.159q.012-.019.038-.05l.006-.007.006-.012.07-.083q.26-.343.59-.806.54-.762 1.309-1.899l1.174-1.772q.566-.857.693-1.022.07-.089.082-.102.102-.082.28.058zm-4.769.171l.013-.012q-.013.006-.013.012zm-.222 6.3h-.013H71.67z"
      />
         <path
        d="M79.709 125.682q.064-.057.12.013.064.07.032.127-.222.368-.787.596-.565.229-1.124.185-.019.044-.038.076-.267.546-.718.673-.298.082-.584-.057-.28-.14-.425-.42-.267-.526-.032-1.212.05-.134.114-.26.07-.128.16-.236.088-.114.202-.203.12-.089.248-.133.013 0 .025-.006.197-.083.445-.02.197.045.355.172.16.127.254.305.096.172.134.375.038.228 0 .489l.006.006h.006q.623.044 1.2-.216l.026-.013.05-.025q.039-.026.083-.045.07-.044.134-.089.076-.05.114-.082zm-2.337-.426q-.044 0-.082.006-.102.013-.16.07l-.03.032-.014.013-.031.076v.006q-.007.02-.007.025v.07q0 .032.007.044 0 .013.006.032v.013l.013.019q0 .012.012.038v.006l.007.013v-.013q0 .013.006.019.006.013.026.044l.012.02q-.006-.013-.012-.02l.012.026q.013.006.026.019.012.012.019.025.006.006.012.006l.058.057q.019.013.025.02l.057.031q.02.013.038.02.108.056.241.094l.013-.057q.006 0 .006-.019v-.006q.013-.032.013-.05.026-.109.032-.217v-.107-.013-.02-.025q-.006-.05-.02-.101l-.005-.02v-.012l-.007-.013q0-.012-.006-.025-.006-.013-.013-.02 0-.012-.012-.025 0-.006-.013-.019l-.006-.006q-.007-.006-.013-.006l-.006-.006h.006-.006q-.013-.006-.02-.006-.006-.006-.012-.006-.006-.006-.026-.006-.012-.006-.019-.006-.006-.006-.012-.006-.064-.012-.115-.012zm-.108 1.41q.076-.07.127-.146.013-.02.026-.044-.235-.108-.426-.312-.19-.203-.286-.457-.14.223-.19.477-.032.127-.038.254-.007.063 0 .127V126.62q.006.006.006.02 0 .018.006.057.013.031.013.05 0 .006.006.013.013.032.013.044l.006.006q.013.026.02.032.006.013.012.02.007 0 .013.005h-.006.006l.019.006.006.006q.013 0 .02.006.006 0 .012.006h.013l.044.006q.038.006.09.006h.012q.019 0 .025-.006.026 0 .051-.006.044-.006.089-.025.019-.006.05-.013 0-.006.013-.006l.013-.006.076-.044q.083-.057.159-.134zm-.692.203q.013.006.02.006-.007-.006-.02-.006zm1.003-1.568q-.012-.006-.019-.006.013.006.02.006zm-.45.47zm-.077-.223v.006zm.045.16h-.007q0-.007.007 0z"
      />
         <path
        d="M81.741 125.117q.013.089-.044.133-.051.044-.134.013-.006-.006-.025-.013-.02-.006-.026-.006-.006-.006-.019-.013-.038-.006-.063-.006h-.038l-.032-.006q-.038.006-.063.013-.153.025-.305.133-.26.185-.515.546-.216.305-.431.718-.248.476-.394.895-.026.058-.083.058-.057 0-.108-.032-.05-.026-.089-.057-.184-.166-.127-.337l.083-.248q.203-.654.343-1.155.082-.318.127-.546.025-.134.032-.216v-.038q.006-.032.006-.045v-.019q-.02-.089.032-.127.057-.044.14-.013.088.032.158.121.07.083.09.184.018.102 0 .254.628-.755 1.237-.495.09.038.16.127.069.082.088.178z"
      />
         <path
        d="M84.04 126.945v.006zm0 0h-.013v-.012l.006-.013q0 .006.007.025zm0 .006l-.007-.006.007.006zm2.178-1.18q.095-.147.127-.02.025.121-.026.273-.031.077-.108.204-.07.127-.19.292-.114.158-.28.324-.158.158-.342.298-.178.14-.4.222-.216.09-.432.09-.445 0-.66-.185-.248-.203-.318-.552-.02-.09-.026-.197-.317.444-.635.673-.279.203-.533.184-.254-.013-.438-.248-.19-.235-.21-.508-.038-.419.324-.984.28-.444.623-.724.349-.286.615-.247.33.05.553.349l.044-.076q.083-.102.185-.064.101.032.184.152.082.121.07.216-.007.045-.083.267-.089.26-.14.432-.019.057-.038.127-.006.019-.006.032-.006.038-.013.063-.032.14-.05.26-.02.134-.026.255V126.754q.006.013.006.038v.038l.013.038.006.026v.012q.007.02.007.026h.006v.012h.006-.006.006v.006q.007 0 0 .006h.007v-.006q.019.006.031.013H84.084l.12.019q.16.006.369-.038.641-.127 1.213-.674.178-.165.343-.368v-.006l.012-.013q.013-.012.013-.019l.038-.05q.02-.026.026-.045zm-2.134.31zm.235-.793l-.006.012h-.007v.013q.02-.013.013-.025zm-.73-.108v0zm0 .006q0 .006.006.013v-.006l-.006-.006zm.006.006v-.006-.006.012zm0-.006l-.006-.013zm-.006-.006zm-1.403 1.72zm-.02-.005h.007zm.032.031zm.915-.717q.247-.33.527-.807-.045-.082-.045-.165.007-.025 0-.038-.006 0-.006-.006v-.013l-.051-.025q-.038-.013-.076-.019h-.032q-.05.006-.108.032-.044.012-.108.057-.063.038-.127.089-.305.235-.552.59-.159.229-.26.439-.096.203-.109.406 0 .044.007.089.006.032.006.05l.006.013q.007 0 .026.006h.038q.013-.006.025-.006.02-.006.032-.006.044-.012.108-.038.006 0 .025-.006l.007-.006q.025-.012.044-.025.102-.064.216-.159.203-.178.407-.45zm.914.743q0 .006.013.012v0-.006h-.007.007q-.007 0-.007-.006h-.006zm.013.006v.006z"
      />
         <path
        d="M89.044 125.726q.07-.082.127.045.038.082.019.165-.083.317-.635.876-.553.559-1.06.762-.674.267-1.03.045-.342-.21-.406-.68-.044-.33.038-.825.083-.451.267-1.035.311-.997.825-2.121.216-.47.407-.826.184-.343.317-.508.032-.05.095-.025.07.025.121.063.05.038.083.076.152.185.05.318l.013-.02-.019.026q-.013.02-.025.045-.28.419-.724 1.403-.495 1.111-.781 2.057-.038.127-.07.248-.032.108-.05.216-.064.241-.096.45-.032.223-.038.407v.127q.006.095.019.152 0 .006.006.026.006.012.013.038h.013q.45.044 1.054-.299.793-.444 1.466-1.206zm-2.572 1.283zm0 0v0zm.044.241v-.006.006z"
      />
         <path
        d="M89.202 126.926zm2.388-1.18q.076-.083.12-.007.039.077-.006.248-.025.102-.146.286-.12.178-.33.4-.21.222-.464.413-.247.184-.577.298-.324.114-.648.089-.28-.026-.495-.241-.216-.216-.286-.508-.102-.42.228-1.023.305-.578.635-.825.204-.153.375-.14.076.006.146.05.076.039.133.102.058.058.096.127.171.299.025.737-.146.42-.47.648-.184.127-.387.158-.133.02-.299-.05-.019-.006-.038-.02-.057.204-.031.356.006.032.012.045.007.012.007.019 0 .006.012.019l-.012-.013.012.013v0l.02.019q.006.006.031.019.006.006.013.006.05.019.057.019.006.006.057.012.032.006.07.006.184 0 .438-.07.394-.12.832-.425.508-.355.87-.768zm-1.416-.534h.006-.006zm-.146-.146v0zm-.388.59q-.146.204-.254.4l.077-.025q.063-.025.146-.089.076-.057.14-.127.057-.063.101-.14.05-.076.089-.165.038-.076.063-.171l.007-.006v-.006q.006-.025.006-.032l.006-.019q-.057.032-.108.083-.14.12-.273.298zm-.45 1.251h-.007v-.006q0 .006.007.013zm.057.057z"
      />
         <path
        d="M92.32 125.072zm1.797.597q.064-.089.114.05.026.077.02.134-.026.178-.21.438t-.476.534q-.292.273-.718.527-.425.26-.889.419-.336.108-.768.095-.235-.006-.368-.05-.16-.064-.23-.248-.024-.051-.012-.127.007-.07.07-.083.025-.006.057-.006h.013q.019 0 .063.006.039.006.058.006.076.006.152.006h.095v-.006h.045q.203-.012.349-.063.025-.006.082-.032l.007-.006q.006 0 .012-.006.013-.006.02-.013.063-.038.114-.095.012-.006.032-.05.006-.007.019-.033 0-.006.006-.019v-.012l.006-.02v-.044-.025-.032q0-.013-.013-.07v-.012q-.044-.114-.057-.152-.095-.242-.152-.457-.07-.248-.108-.426-.038-.178-.032-.425.007-.248.09-.432.107-.229.348-.318.242-.089.464.038.082.051.14.153.063.095.057.184-.013.082-.083.095-.07.013-.127-.025v.006h.013q-.013-.006-.02-.006h-.005-.007-.025q-.051-.006-.127.019 0 .006-.038.019h-.007l-.006.006q-.05.032-.076.057-.006 0-.013.006-.006.006-.013.019l-.012.013-.007.006-.006.006q-.032.05-.044.089-.026.038-.038.095l-.007.038-.012.063q-.007.064-.007.14v.095q.013.16.051.343.038.159.14.457l.114.33q.038.134.05.261.223-.089.433-.197.99-.52 1.48-1.263zm-3.22 2.16z"
      />
      </g>
   </g>
</svg>
